<svg width="16" height="14" viewBox="0 0 16 14" fill="none" xmlns="http://www.w3.org/2000/svg">
<path d="M5.6875 7C4.70312 7 3.9375 6.23438 3.9375 5.25C3.9375 4.29297 4.70312 3.5 5.6875 3.5C6.64453 3.5 7.4375 4.29297 7.4375 5.25C7.4375 6.23438 6.64453 7 5.6875 7ZM12.6875 6.34375C13.043 6.34375 13.3438 6.64453 13.3438 7C13.3438 7.38281 13.043 7.65625 12.6875 7.65625H10.0625C9.67969 7.65625 9.40625 7.38281 9.40625 7C9.40625 6.64453 9.67969 6.34375 10.0625 6.34375H12.6875ZM6.5625 7.875C7.76562 7.875 8.75 8.85938 8.75 10.0625C8.75 10.3086 8.53125 10.5 8.3125 10.5H3.0625C2.81641 10.5 2.625 10.3086 2.625 10.0625C2.625 8.85938 3.58203 7.875 4.8125 7.875H6.5625ZM12.6875 4.15625C13.043 4.15625 13.3438 4.45703 13.3438 4.8125C13.3438 5.19531 13.043 5.46875 12.6875 5.46875H10.0625C9.67969 5.46875 9.40625 5.19531 9.40625 4.8125C9.40625 4.45703 9.67969 4.15625 10.0625 4.15625H12.6875ZM14 0.875C14.957 0.875 15.75 1.66797 15.75 2.625V11.375C15.75 12.3594 14.957 13.125 14 13.125H1.75C0.765625 13.125 0 12.3594 0 11.375V2.625C0 1.66797 0.765625 0.875 1.75 0.875H14ZM14.4375 11.375V2.625C14.4375 2.40625 14.2188 2.1875 14 2.1875H1.75C1.50391 2.1875 1.3125 2.40625 1.3125 2.625V11.375C1.3125 11.6211 1.50391 11.8125 1.75 11.8125H14C14.2188 11.8125 14.4375 11.6211 14.4375 11.375Z" fill="#A3A3A3"/>
</svg>
